<?xml version="1.0" encoding="UTF-8"?>
<svg id="Layer_2" data-name="Layer 2" xmlns="http://www.w3.org/2000/svg" xmlns:xlink="http://www.w3.org/1999/xlink" viewBox="0 0 160 160">
  <defs>
    <style>
      .cls-1 {
        fill: url(#linear-gradient-3);
      }

      .cls-1, .cls-2, .cls-3, .cls-4, .cls-5, .cls-6, .cls-7 {
        stroke-miterlimit: 10;
      }

      .cls-1, .cls-2, .cls-4, .cls-5, .cls-6, .cls-7 {
        stroke: #000;
        stroke-width: .1px;
      }

      .cls-2 {
        fill: url(#linear-gradient-4);
      }

      .cls-3 {
        stroke: #bb8a2d;
        stroke-width: 2px;
      }

      .cls-3, .cls-4 {
        fill: none;
      }

      .cls-8 {
        fill: url(#linear-gradient-2);
      }

      .cls-9 {
        fill: #452c1f;
      }

      .cls-5 {
        fill: url(#linear-gradient);
      }

      .cls-10 {
        fill: #994324;
      }

      .cls-11 {
        fill: #ba8a2d;
      }

      .cls-6 {
        fill: #bc872c;
      }

      .cls-7 {
        fill: url(#radial-gradient);
      }
    </style>
    <linearGradient id="linear-gradient" x1="80.5" y1="80.5" x2="80.5" y2="80.5" gradientUnits="userSpaceOnUse">
      <stop offset="0" stop-color="#7b5625"/>
      <stop offset=".39" stop-color="#c1902f"/>
      <stop offset=".79" stop-color="#bf8e2e"/>
      <stop offset="1" stop-color="#e2ba63"/>
    </linearGradient>
    <linearGradient id="linear-gradient-2" x1="80" y1="22.34" x2="80" y2="25.51" gradientUnits="userSpaceOnUse">
      <stop offset="0" stop-color="#8b3d1e"/>
      <stop offset="1" stop-color="#422114"/>
    </linearGradient>
    <radialGradient id="radial-gradient" cx="79.89" cy="30.37" fx="79.89" fy="30.37" r="6.31" gradientUnits="userSpaceOnUse">
      <stop offset="0" stop-color="#542b1a"/>
      <stop offset="1" stop-color="#953e20"/>
    </radialGradient>
    <linearGradient id="linear-gradient-3" x1="70.85" y1="33.94" x2="88.48" y2="44.12" gradientUnits="userSpaceOnUse">
      <stop offset=".16" stop-color="#996d32"/>
      <stop offset=".67" stop-color="#bf8e2e"/>
      <stop offset=".99" stop-color="#e2ba63"/>
    </linearGradient>
    <linearGradient id="linear-gradient-4" x1="85.24" y1="41.28" x2="72.1" y2="64.03" gradientUnits="userSpaceOnUse">
      <stop offset="0" stop-color="#3b2a1a"/>
      <stop offset=".18" stop-color="#5c4024"/>
      <stop offset=".38" stop-color="#8f6b2a"/>
      <stop offset=".74" stop-color="#bf8e2e"/>
      <stop offset=".93" stop-color="#a88f69"/>
    </linearGradient>
  </defs>
  <rect class="cls-9" width="160" height="160"/>
  <g>
    <path class="cls-5" d="M80,20.8c-1.73,0-3.13,1.4-3.13,3.13,0,1.09.56,2.05,1.4,2.6.49.34,1.09.53,1.73.53s1.24-.19,1.73-.53c.84-.55,1.4-1.51,1.4-2.6,0-1.73-1.4-3.13-3.13-3.13ZM80,25.51c-.88,0-1.59-.71-1.59-1.58s.71-1.59,1.59-1.59,1.59.71,1.59,1.59-.71,1.58-1.59,1.58Z"/>
    <path class="cls-6" d="M81.59,23.93c0,.87-.71,1.58-1.59,1.58s-1.59-.71-1.59-1.58.71-1.59,1.59-1.59,1.59.71,1.59,1.59Z"/>
    <path class="cls-8" d="M81.59,23.93c0,.87-.71,1.58-1.59,1.58s-1.59-.71-1.59-1.58.71-1.59,1.59-1.59,1.59.71,1.59,1.59Z"/>
    <g>
      <path class="cls-7" d="M81.73,26.53v10.13h-3.46v-10.13c.49.34,1.09.53,1.73.53s1.24-.19,1.73-.53Z"/>
      <path class="cls-4" d="M81.73,27.43c-.44.28-1.02.59-1.73.84-.65.23-1.25.36-1.73.43"/>
      <path class="cls-4" d="M81.73,29.8c-.4.26-.92.55-1.55.79-.74.28-1.4.41-1.92.48"/>
      <path class="cls-4" d="M81.73,32.4c-.35.27-.9.63-1.62.9-.74.27-1.39.35-1.84.37"/>
      <path class="cls-4" d="M81.73,35.37c-.37.25-.85.54-1.44.78-.79.32-1.5.44-2.02.49"/>
    </g>
    <path class="cls-1" d="M68.25,38.46c2.72-.86,6.73-1.81,11.65-1.82,5.02-.01,9.11.95,11.86,1.82-.57.94-1.14,1.88-1.71,2.82-.21-.31-.54-.73-1.04-1.11-2.23-1.69-5.27-.58-5.57-.46-2.03.77-3.08,2.36-3.43,2.96-.28-.55-1.22-2.22-3.22-3.02-1.67-.67-4.09-.72-5.61.66-.36.33-.6.67-.75.93-.73-.93-1.45-1.86-2.18-2.79Z"/>
    <path class="cls-2" d="M76.85,66.77c2.08-2.31,4.17-4.63,6.25-6.94-.06-6.64-.13-13.25-.19-19.89-.38.18-.87.48-1.38.91-.79.67-1.25,1.37-1.53,1.83-.24-.47-.63-1.09-1.23-1.7-.48-.49-.96-.82-1.35-1.02-.19,8.95-.38,17.86-.57,26.81Z"/>
    <line class="cls-4" x1="80" y1="42.68" x2="80" y2="63.3"/>
    <circle class="cls-3" cx="80" cy="50.99" r="34.85"/>
    <g>
      <path class="cls-10" d="M52.68,66.18l9.88-10.69,2.72,1.24,6.98-9.08,4.78,5.25-.06,2.21-4.35-3.26-4.94,6.49,4.7-3.71-.62,6.61-7.66,7.35,8.28-3.27,3.15-3.95v6.92l-4.14,5.25,12.11-13.34,10.01,11.86-5.87-3.71-2.41-3.89-5.32,6.18,2.17,2.9-4.76,7.97c-.28.16-1.21.65-2.45.48-1.1-.15-1.81-.75-2.06-.98,1.17-2.22,2.35-4.45,3.52-6.67l-7.85,5.63c-.48,0-1.46-.04-2.52-.59-1.17-.6-1.8-1.49-2.05-1.89,1.28-2.29,2.55-4.57,3.83-6.86l-7.54,4.26c-1.01-.36-2.79-1.68-4.49-3.47-2.09-2.22-2.83-4.17-3.05-5.24Z"/>
      <path class="cls-10" d="M83.09,52.03l4.5-3.27,7.66,8.9,2.78-1.36,9.33,9.64c-.85,1.9-2.29,4.54-4.71,7.18-3,3.28-6.18,5.13-8.25,6.12-.18-2.94-.37-5.88-.55-8.82l-2.36-10.29,5.93,3.95-9.76-12.17-.63-.92-1.44,11.27-2.49-10.22Z"/>
    </g>
  </g>
  <g>
    <g>
      <path class="cls-11" d="M40.07,95.26h-.06c0-.35-.13-.64-.38-.89-.25-.25-.55-.37-.9-.37h-.24l-.02-.2h1.6v1.46ZM40.07,106.34v1.46h-1.6v-.2h.26c.35,0,.64-.12.89-.37s.38-.54.39-.89h.06ZM43.01,93.8v14h-3v-14h3ZM45.73,93.8c1.57,0,2.93.28,4.08.85,1.15.57,2.03,1.37,2.65,2.42.62,1.05.93,2.29.93,3.73s-.31,2.68-.93,3.73-1.5,1.85-2.65,2.42c-1.15.57-2.51.85-4.08.85h-4.76l-.02-.84h4.54c.96,0,1.79-.25,2.48-.75s1.23-1.21,1.6-2.13c.37-.92.56-2.01.56-3.28s-.19-2.36-.56-3.28c-.37-.92-.91-1.63-1.6-2.13s-1.52-.75-2.48-.75h-4.74v-.84h4.98Z"/>
      <path class="cls-11" d="M55.99,106.48c-.15.36-.13.64.06.83.19.19.39.29.62.29h.16v.2h-4v-.2h.16c.27,0,.55-.08.84-.25.29-.17.53-.46.72-.87h1.44ZM59.75,95.26l.04,2.4-4.34,10.08h-1.48l4.68-10.06c.03-.08.09-.22.18-.43s.19-.44.3-.7c.11-.26.21-.51.3-.74.09-.23.15-.42.16-.55h.16ZM61.49,103.88v.78h-5.1v-.78h5.1ZM59.75,95.26l5.92,12.44h-3.38l-3.72-8.78,1.18-3.66ZM61.79,106.48h3.3c.2.41.45.7.74.87.29.17.57.25.84.25h.16v.2h-5.88v-.2h.16c.23,0,.43-.1.62-.29s.21-.47.06-.83Z"/>
      <path class="cls-11" d="M71.25,95.54c.27,0,.59.01.97.04s.76.06,1.13.09c.37.03.7.07.99.12.29.05.48.09.59.13l-.26,2.44h-.18c0-.61-.21-1.1-.64-1.46-.43-.36-1.04-.54-1.84-.54-.64,0-1.16.14-1.55.42-.39.28-.6.65-.63,1.12-.03.24.02.46.13.65.11.19.27.36.48.51.21.15.44.29.69.44l3.14,1.94c.53.27.95.65,1.26,1.16.31.51.44,1.12.4,1.84-.04.75-.26,1.39-.65,1.94-.39.55-.93.96-1.62,1.25-.69.29-1.5.43-2.43.43-.57,0-1.11-.05-1.6-.14-.49-.09-.92-.22-1.27-.38-.35-.16-.62-.34-.81-.54-.11-.27-.15-.59-.14-.97.01-.38.07-.76.18-1.14.11-.38.24-.7.4-.95h.16c-.04.6.07,1.15.32,1.66.25.51.64.91,1.15,1.21s1.12.45,1.83.45c.77,0,1.35-.18,1.74-.54.39-.36.58-.79.58-1.28,0-.35-.12-.66-.35-.95-.23-.29-.62-.57-1.15-.85l-2.84-1.8c-.67-.35-1.15-.81-1.45-1.38-.3-.57-.41-1.2-.33-1.88.07-.64.26-1.19.57-1.64.31-.45.73-.8,1.25-1.04.52-.24,1.11-.36,1.78-.36ZM74.93,95.72l-.02.36h-2.14v-.36h2.16Z"/>
      <path class="cls-11" d="M84.23,95.26h-.06c-.01-.35-.14-.64-.39-.89-.25-.25-.54-.37-.89-.37h-.26v-.2h1.6v1.46ZM84.23,106.34v1.46h-1.6v-.2h.26c.35,0,.64-.12.89-.37.25-.25.38-.54.39-.89h.06ZM87.17,93.8v14h-3v-14h3ZM92.69,93.8v.86h-5.58v-.86h5.58ZM91.71,100.48v.84h-4.6v-.84h4.6ZM92.45,106.94l.48.86h-5.82v-.86h5.34ZM93.91,103.72l-.92,4.08h-3.92l.72-.86c.67,0,1.25-.13,1.76-.39.51-.26.94-.63,1.3-1.12.36-.49.65-1.06.86-1.71h.2ZM91.71,98.6v1.92h-1.9v-.04c.49-.01.9-.18,1.22-.51.32-.33.48-.73.48-1.21v-.16h.2ZM91.71,101.28v1.92h-.2v-.18c0-.48-.16-.88-.48-1.2-.32-.32-.73-.49-1.22-.5v-.04h1.9ZM92.69,93.44v.58l-2.44-.22c.29,0,.6-.02.93-.06.33-.04.63-.09.91-.14.28-.05.48-.11.6-.16ZM92.69,94.6v2.34h-.2v-.24c0-.61-.18-1.11-.55-1.48-.37-.37-.87-.57-1.49-.58v-.04h2.24Z"/>
      <path class="cls-11" d="M96.57,97.04h-.04c-.01-.31-.12-.56-.33-.75-.21-.19-.45-.29-.73-.29h-.26v-.2h1.44l-.08,1.24ZM96.57,106.54l.08,1.26h-1.44v-.2h.24c.29,0,.54-.1.75-.31.21-.21.32-.46.33-.75h.04ZM99.41,95.8v12h-2.9v-12h2.9ZM101.35,95.8c.56,0,1.1.06,1.62.17.52.11.99.29,1.4.54.41.25.74.58.99,1s.37.94.37,1.57c0,.47-.1.93-.29,1.39s-.49.86-.9,1.19c-.41.33-.94.55-1.59.66.39.12.76.35,1.11.7s.62.67.81.98c.07.11.17.28.3.51.13.23.3.5.51.8.21.3.42.61.65.93.27.36.5.64.7.83.2.19.41.33.62.41s.46.12.74.12v.2h-1.68c-.72,0-1.33-.05-1.83-.16-.5-.11-.93-.3-1.29-.59-.36-.29-.7-.68-1.02-1.17-.12-.17-.25-.38-.38-.63-.13-.25-.27-.5-.4-.75-.13-.25-.25-.5-.35-.74-.1-.24-.17-.44-.21-.6-.17-.43-.37-.74-.59-.93-.22-.19-.42-.29-.61-.29v-.18h.5c.28,0,.56-.05.83-.15.27-.1.52-.29.75-.58.23-.29.39-.71.5-1.27.03-.08.05-.19.07-.34.02-.15.02-.31,0-.5-.03-.49-.12-.89-.27-1.18-.15-.29-.34-.52-.57-.68s-.46-.27-.69-.33c-.23-.06-.44-.09-.61-.09-.25-.01-.48-.02-.69,0s-.36,0-.47,0c-.01,0-.03-.07-.06-.21-.03-.14-.07-.34-.12-.61h2.14ZM99.37,106.54h.04c0,.33.12.59.35.78.23.19.48.28.73.28h.22v.2h-1.44l.1-1.26Z"/>
      <path class="cls-11" d="M109.65,97.06h-.06c0-.32-.1-.58-.31-.77-.21-.19-.47-.29-.79-.29h-.22v-.2h1.38v1.26ZM109.65,106.54v1.26h-1.38v-.2h.22c.32,0,.58-.1.79-.31.21-.21.31-.46.31-.75h.06ZM112.41,95.8v12h-2.82v-12h2.82ZM113.65,95.8c.52,0,1.05.04,1.58.12s1.02.23,1.46.44c.44.21.79.51,1.06.9s.4.89.4,1.52c0,.51-.11.94-.32,1.3-.21.36-.49.64-.82.84s-.69.31-1.06.34c.59.04,1.11.19,1.58.46.47.27.84.63,1.13,1.08.29.45.43.98.43,1.58s-.13,1.16-.4,1.59c-.27.43-.63.79-1.1,1.06s-1,.47-1.61.59-1.24.18-1.91.18h-1.8v-.8h.96c.48,0,.92-.09,1.31-.27.39-.18.71-.48.95-.89.24-.41.36-.96.36-1.64,0-.47-.07-.88-.21-1.23-.14-.35-.34-.64-.59-.86-.25-.22-.55-.38-.9-.49s-.73-.16-1.14-.16v-.18c.29,0,.57-.04.84-.13.27-.09.5-.22.69-.4.19-.18.35-.42.46-.71s.17-.65.17-1.06c0-.89-.21-1.52-.62-1.87-.41-.35-.93-.53-1.56-.53h-2.48s-.02-.08-.05-.21-.08-.32-.13-.57h3.32Z"/>
      <path class="cls-11" d="M121.71,97.06h-.06c0-.31-.11-.56-.32-.76-.21-.2-.47-.3-.76-.3h-.26v-.2h1.48l-.08,1.26ZM121.71,106.54l.08,1.26h-1.48v-.2h.26c.29,0,.55-.1.76-.31.21-.21.32-.46.32-.75h.06ZM124.53,95.8v12h-2.88v-12h2.88ZM129.43,95.8v.8h-4.94v-.8h4.94ZM128.53,101.46v.8h-4.04v-.8h4.04ZM129.21,107l.46.8h-5.18v-.8h4.72ZM130.49,104.12l-.76,3.68h-3.46l.62-.8c.57,0,1.08-.12,1.53-.35.45-.23.83-.57,1.15-1,.32-.43.57-.94.74-1.53h.18ZM128.53,99.74v1.76h-1.72v-.04c.47-.01.84-.17,1.11-.47.27-.3.41-.67.41-1.11v-.14h.2ZM128.53,102.22v1.76h-.2v-.16c0-.44-.14-.81-.41-1.11s-.64-.45-1.11-.45v-.04h1.72ZM129.43,95.5v.48l-2.1-.18c.39,0,.79-.04,1.22-.11.43-.07.72-.14.88-.19ZM129.43,96.56v2.12h-.2v-.18c0-.59-.16-1.05-.47-1.38s-.76-.51-1.35-.52v-.04h2.02Z"/>
    </g>
    <g>
      <path class="cls-11" d="M70.14,118.5h-2.64c-.16-.34-.36-.58-.61-.73-.25-.14-.48-.22-.71-.22h-.12v-.15h4.77v.15h-.14c-.19,0-.36.08-.5.25s-.16.4-.05.7ZM72,128.21l-4.96-10.71h2.69l3.19,7.82-.92,2.89ZM72,128.21l-.04-1.83,3.81-8.92h1.08l-3.98,8.79c-.02.06-.07.17-.14.34-.08.17-.16.35-.25.56s-.17.41-.23.61c-.07.19-.1.35-.11.46h-.13ZM75.31,118.5c.13-.3.11-.53-.04-.7-.16-.17-.33-.25-.52-.25h-.14v-.15h3.21v.15h-.13c-.22,0-.45.07-.7.22-.25.15-.45.39-.61.73h-1.06Z"/>
      <path class="cls-11" d="M82.35,118.71c.8,0,1.52.11,2.18.32.65.21,1.21.53,1.68.94.47.41.83.9,1.09,1.48s.38,1.24.38,1.96-.13,1.37-.38,1.94c-.25.58-.62,1.07-1.09,1.48-.47.41-1.03.72-1.68.94-.65.22-1.38.32-2.18.32s-1.51-.11-2.16-.32c-.65-.21-1.21-.53-1.68-.94-.47-.41-.83-.9-1.08-1.48-.25-.57-.38-1.22-.38-1.94s.12-1.38.38-1.96.61-1.07,1.08-1.48c.47-.41,1.03-.72,1.68-.94.65-.22,1.37-.32,2.16-.32ZM82.35,127.52c.61,0,1.14-.17,1.6-.5.46-.33.8-.81,1.05-1.42.25-.61.37-1.33.37-2.18s-.12-1.58-.37-2.2-.59-1.09-1.05-1.42c-.46-.33-.99-.5-1.6-.5s-1.12.17-1.57.5c-.45.33-.8.81-1.05,1.42s-.38,1.35-.38,2.2.12,1.57.38,2.18c.25.61.6,1.08,1.05,1.42.45.33.98.5,1.57.5Z"/>
      <path class="cls-11" d="M89.46,126.99v.92h-1.11v-.15h.24c.23,0,.42-.07.58-.22.16-.15.24-.33.24-.55h.04ZM89.4,118.7l2.07,2.25v6.96h-2.05v-7.5c0-.51-.05-1.08-.15-1.71h.14ZM89.4,118.7l8.8,7.74.15,1.67-8.79-7.74-.16-1.67ZM91.47,126.99c0,.22.09.4.25.55.16.14.35.22.57.22h.24v.15h-1.1v-.92h.03ZM96.29,119.82c-.01-.22-.09-.4-.25-.55-.16-.14-.35-.22-.58-.22h-.25v-.15h1.11v.92h-.03ZM98.34,118.91v7.44c0,.35.01.66.04.92.03.27.06.54.11.83h-.14l-2.07-2.39v-6.81h2.05ZM98.3,119.82v-.92h1.12v.15h-.25c-.22,0-.41.07-.58.22-.17.15-.25.33-.25.55h-.04Z"/>
    </g>
    <g>
      <path class="cls-11" d="M55.67,145.89c-.12.29-.14.54-.07.75.07.21.2.36.37.47.18.11.35.17.53.17h.2v.22h-4.71v-.22h.2c.34,0,.69-.11,1.04-.32.36-.21.66-.57.89-1.07h1.54ZM60.4,131.65l.09,2.68-5.46,13.09h-1.61l5.7-12.89c.04-.09.12-.25.23-.5.11-.24.23-.52.35-.83.12-.31.24-.6.34-.89.1-.29.15-.51.15-.67h.2ZM62.71,142.26v.92h-6.47v-.92h6.47ZM60.4,131.65l7.17,15.71h-3.94l-4.58-11.46,1.34-4.25ZM63.04,145.89h3.85c.25.5.55.86.9,1.07.35.21.7.32,1.03.32h.18v.22h-7v-.22h.2c.29,0,.55-.12.77-.36.22-.24.24-.58.07-1.02Z"/>
      <path class="cls-11" d="M70.78,135.66h-.04c-.01-.34-.14-.61-.36-.83-.23-.21-.5-.32-.8-.32h-.29v-.22h1.58l-.09,1.36ZM70.78,146.11l.09,1.39h-1.58v-.22h.26c.32,0,.6-.11.83-.34.23-.23.35-.5.36-.83h.04ZM73.9,134.29v13.2h-3.19v-13.2h3.19ZM76.04,134.29c.62,0,1.21.06,1.78.19.57.12,1.09.32,1.54.59s.82.64,1.09,1.1.41,1.04.41,1.73c0,.51-.11,1.02-.32,1.53-.21.51-.54.94-.99,1.31-.45.37-1.03.61-1.75.73.43.13.83.39,1.22.77.39.38.69.74.89,1.08.07.12.18.3.33.56.15.26.33.55.56.88.23.33.47.67.71,1.02.29.4.55.7.77.91.22.21.45.36.68.45.23.09.51.13.81.13v.22h-1.85c-.79,0-1.46-.06-2.01-.18-.55-.12-1.02-.33-1.42-.65s-.77-.74-1.12-1.29c-.13-.19-.27-.42-.42-.69-.15-.27-.29-.55-.44-.83-.15-.28-.27-.55-.39-.81-.11-.26-.19-.48-.23-.66-.19-.47-.41-.81-.65-1.02s-.47-.32-.67-.32v-.2h.55c.31,0,.61-.06.91-.17.3-.11.58-.32.83-.64.25-.32.43-.78.55-1.4.03-.09.06-.21.08-.37s.03-.34.01-.55c-.03-.54-.13-.98-.3-1.3-.17-.32-.38-.57-.63-.75-.25-.18-.5-.3-.76-.36-.26-.07-.48-.1-.67-.1-.28-.01-.53-.02-.76-.01-.23,0-.4,0-.52-.01-.01,0-.04-.08-.07-.23-.03-.15-.07-.38-.13-.67h2.35ZM73.86,146.11h.04c0,.37.13.65.39.86.26.21.52.31.8.31h.24v.22h-1.58l.11-1.39Z"/>
      <path class="cls-11" d="M85.15,135.68h-.04c-.01-.34-.14-.62-.38-.84-.24-.22-.53-.33-.87-.33h-.26v-.22h1.56v1.39ZM85.17,146.09v1.41h-1.58v-.22h.29c.34,0,.63-.12.87-.35.24-.23.36-.51.36-.84h.07ZM88.27,134.29v13.2h-3.17v-13.2h3.17ZM91.02,134.29c1.57,0,2.92.26,4.05.78,1.13.52,2,1.28,2.6,2.27.6.99.9,2.17.9,3.55s-.3,2.56-.9,3.54c-.6.98-1.47,1.74-2.6,2.27-1.13.53-2.48.79-4.05.79h-4.88l-.04-.88h4.66c1.38,0,2.47-.51,3.27-1.52.8-1.01,1.2-2.41,1.2-4.2s-.4-3.19-1.2-4.21c-.8-1.02-1.89-1.53-3.27-1.53h-4.88v-.86h5.15Z"/>
      <path class="cls-11" d="M101.86,146.04c-.16.4-.14.7.07.91.21.21.43.32.68.32h.18v.22h-4.4v-.22h.18c.29,0,.6-.09.92-.28.32-.18.59-.5.79-.96h1.58ZM106,133.7l.04,2.64-4.77,11.09h-1.63l5.15-11.07c.03-.09.1-.25.2-.47.1-.23.21-.48.33-.77s.23-.56.33-.81c.1-.26.16-.46.18-.6h.18ZM107.91,143.18v.86h-5.61v-.86h5.61ZM106,133.7l6.51,13.68h-3.72l-4.09-9.66,1.3-4.03ZM108.24,146.04h3.63c.22.46.49.77.81.96.32.18.63.28.92.28h.18v.22h-6.47v-.22h.18c.25,0,.48-.11.68-.32.21-.21.23-.52.06-.91Z"/>
    </g>
  </g>
</svg>